<svg version="1.1" id="Layer_1" xmlns="http://www.w3.org/2000/svg" xmlns:xlink="http://www.w3.org/1999/xlink" x="0px" y="0px"
	 width="100%" viewBox="0 0 1280 1024" enable-background="new 0 0 1280 1024" xml:space="preserve">
<path fill="#737373" opacity="1.000000" stroke="none" 
	d="
M638.000000,1025.000000 
	C425.333344,1025.000000 213.166672,1025.000000 1.000000,1025.000000 
	C1.000000,683.666687 1.000000,342.333344 1.000000,1.000000 
	C427.666656,1.000000 854.333313,1.000000 1281.000000,1.000000 
	C1281.000000,342.333344 1281.000000,683.666687 1281.000000,1025.000000 
	C1066.833374,1025.000000 852.666687,1025.000000 638.000000,1025.000000 
M574.669006,576.170410 
	C585.111755,578.313660 595.554443,580.456848 606.908630,582.781433 
	C610.665405,582.962097 614.422119,583.142822 618.087769,584.071594 
	C617.562744,586.168945 617.089478,588.280945 616.503723,590.361206 
	C613.890137,599.643250 607.984375,605.197449 598.243469,606.330017 
	C595.769348,606.617615 593.273010,607.095886 590.806458,606.997253 
	C582.332764,606.658203 573.853638,606.273560 565.403442,605.579590 
	C557.300415,604.914185 554.230652,607.369995 553.961121,615.359558 
	C553.882629,617.687256 553.790527,620.017639 553.597168,622.337830 
	C552.484558,635.689026 556.713013,641.491333 570.114319,642.631653 
	C582.672302,643.700195 595.378418,644.435242 607.939758,643.783264 
	C640.107483,642.113770 661.550903,624.208801 670.046509,593.077942 
	C674.155823,578.020142 675.445801,562.643494 675.526245,546.583801 
	C732.838562,510.913544 750.070679,440.204926 715.156982,384.131561 
	C705.941162,369.330292 693.535583,357.718475 679.224060,346.865082 
	C679.165955,327.898895 679.010803,308.932312 679.080627,289.966614 
	C679.135681,275.006378 684.011169,269.054779 698.219971,264.888763 
	C701.200378,264.014893 704.695618,262.097870 706.218323,259.602600 
	C710.023071,253.368240 709.230164,246.314056 706.378662,239.940125 
	C703.910095,234.422012 698.187500,234.066177 692.981445,234.160934 
	C661.543152,234.733246 630.104248,235.351349 598.677429,236.334122 
	C595.892822,236.421188 591.933167,238.550613 590.672974,240.891113 
	C585.311584,250.848785 590.168701,262.892822 600.773254,267.051025 
	C610.250000,270.766968 616.225281,277.500610 617.988098,287.395233 
	C619.117920,293.736847 619.093567,300.284027 618.548889,306.857666 
	C611.339600,307.487305 604.130371,308.116943 596.062378,308.785339 
	C582.670776,310.651642 569.851440,314.318420 557.252502,321.046875 
	C541.835510,328.303223 528.474060,338.336273 516.398560,351.237915 
	C486.091858,385.455109 474.305023,425.146973 482.133087,470.206146 
	C486.501312,495.350250 497.251129,517.678406 515.088562,537.031555 
	C524.052246,544.716309 533.015930,552.401062 542.392334,560.605347 
	C552.928101,565.681030 563.463867,570.756775 574.669006,576.170410 
M843.393127,739.594299 
	C854.643066,757.780945 878.499268,764.535217 897.202942,754.779541 
	C899.146484,753.765747 901.943970,753.050415 900.299438,749.734802 
	C898.466309,746.038879 896.632996,742.343018 894.680603,738.406860 
	C883.053833,743.980042 872.187073,743.977051 861.482361,735.668640 
	C856.171875,728.389587 854.723694,720.543213 858.463989,711.519470 
	C862.002502,705.082092 867.554016,700.836792 874.677795,700.426331 
	C881.249146,700.047668 887.927246,701.521118 895.517151,702.273865 
	C896.590942,700.143066 898.206055,696.699158 900.039490,693.375671 
	C901.523743,690.685181 900.820068,688.727234 898.119934,687.868530 
	C892.923218,686.215881 887.703430,684.296997 882.345398,683.551880 
	C863.852966,680.980469 844.143616,693.960388 839.588440,711.639160 
	C836.676819,721.285828 837.728882,730.410461 843.393127,739.594299 
M977.780579,738.891541 
	C982.185364,730.667664 983.196899,722.027588 980.968323,712.201660 
	C979.755371,704.859009 976.087952,698.772217 970.841492,693.728455 
	C960.325623,683.618896 947.743835,680.567505 934.024109,685.177307 
	C921.248047,689.470032 912.742065,698.343140 909.588806,712.665710 
	C907.807434,721.584106 908.104553,730.250488 912.846375,739.077332 
	C919.760254,752.800476 931.189453,759.180420 946.253784,758.861267 
	C960.296814,758.563843 970.907349,752.220764 977.780579,738.891541 
M442.895325,722.077515 
	C442.917114,712.770386 442.842651,703.461487 443.013458,694.157104 
	C443.072449,690.942871 441.991028,689.734070 438.724030,689.796692 
	C430.416809,689.955994 422.103912,689.912048 413.794708,689.819946 
	C411.051544,689.789490 409.935608,690.786255 409.978851,693.600342 
	C410.129578,703.402588 410.122955,713.207214 410.063202,723.940735 
	C410.101562,741.629211 410.139954,759.317749 410.066742,777.936829 
	C410.048584,795.100220 410.101501,812.264160 409.951813,829.426392 
	C409.922150,832.825806 410.882019,834.158325 414.451874,834.064331 
	C422.611450,833.849182 430.782227,833.900452 438.944977,834.043030 
	C441.976105,834.095947 443.026733,833.016357 443.000458,829.988464 
	C442.847137,812.328613 442.835968,794.667542 442.894592,776.074463 
	C442.856354,758.386719 442.818115,740.698975 442.895325,722.077515 
M383.821411,748.057922 
	C383.851288,730.268433 383.802307,712.478149 383.976410,694.690063 
	C384.011993,691.053833 382.958221,689.660950 379.175629,689.772644 
	C371.201996,690.008057 363.214386,689.955017 355.237091,689.794739 
	C351.987640,689.729492 350.904449,690.897583 350.933746,694.130737 
	C351.099304,712.416199 351.099915,730.703125 351.042694,749.922913 
	C351.023895,760.919678 351.348328,771.932434 350.839355,782.906433 
	C350.590607,788.269897 348.790497,793.561279 347.165009,799.282227 
	C335.596191,810.675842 325.709991,803.279846 315.479034,795.801636 
	C312.449921,803.702759 309.819031,811.218201 306.665375,818.507568 
	C305.154419,821.999939 306.069519,823.937439 308.827911,826.036072 
	C322.049530,836.095703 336.763306,838.669800 352.773315,835.166504 
	C371.529602,831.062195 382.321320,818.295166 383.615601,798.110474 
	C383.641144,781.735229 383.666718,765.360046 383.821411,748.057922 
M730.975769,737.791809 
	C733.762573,751.693298 743.128967,760.277466 754.837036,766.723877 
	C761.659790,770.480408 768.869446,773.527588 775.824829,777.052307 
	C781.459351,779.907593 787.091492,782.860474 789.969543,789.858826 
	C790.019043,799.450867 786.818604,803.331970 777.378052,805.360596 
	C768.653809,807.235413 760.471680,805.501038 752.759583,801.477417 
	C746.345337,798.130981 740.152527,794.360046 733.569885,790.610962 
	C729.323669,797.739990 725.082886,804.872131 720.829773,811.996887 
	C717.230530,818.026306 717.226624,818.018921 723.261597,821.937439 
	C741.547974,833.810364 761.460632,838.511230 783.170105,835.931335 
	C811.009644,832.622925 827.119263,815.034668 825.898560,788.300232 
	C824.885315,784.344055 824.522583,780.063660 822.741333,776.490295 
	C816.478455,763.926270 805.276306,756.900085 793.107788,750.941711 
	C783.423767,746.200012 774.003723,740.919312 764.113953,735.122314 
	C760.647949,727.040710 763.662781,720.508484 771.999084,718.055664 
	C779.028381,715.987366 785.890808,717.111267 792.550598,719.519714 
	C797.958496,721.475220 803.199280,723.892822 809.015198,726.314087 
	C813.337219,717.796692 817.585205,709.425049 821.760132,701.197449 
	C815.545471,695.783630 807.557251,692.122314 795.606812,689.287231 
	C777.411377,684.970581 760.150757,686.174255 745.235168,698.858948 
	C733.471558,708.862976 728.211670,721.475098 730.975769,737.791809 
M550.752502,785.301331 
	C544.124634,777.545654 537.673584,769.627930 530.784851,762.111328 
	C527.884766,758.946777 527.960022,756.866211 530.840881,753.909485 
	C533.818359,750.853699 536.293701,747.308533 539.554871,743.630432 
	C554.503662,726.079163 569.452515,708.527893 585.274475,689.951416 
	C571.440918,689.951416 559.035950,689.911011 546.632446,690.031128 
	C545.681152,690.040344 544.520569,690.998657 543.828064,691.826172 
	C529.854980,708.523743 515.936218,725.266785 501.446960,742.346863 
	C499.892273,743.987671 498.337585,745.628418 496.312012,747.766174 
	C496.097107,745.542053 495.974091,744.268921 495.961304,742.064758 
	C495.982635,726.271545 495.913422,710.477356 496.093506,694.685974 
	C496.134888,691.057678 495.119904,689.656067 491.324127,689.770752 
	C483.351501,690.011475 475.365967,689.903931 467.387085,689.815979 
	C464.638550,689.785706 463.027405,690.372070 463.060242,693.634583 
	C463.225861,710.088379 463.243652,726.543640 463.178009,743.926697 
	C463.221161,756.615662 463.264313,769.304565 463.172455,782.923401 
	C463.148682,798.415894 463.197296,813.909119 463.044250,829.400330 
	C463.010895,832.777405 463.962799,834.157898 467.547577,834.064148 
	C475.705017,833.850647 483.873688,833.895081 492.033905,834.045288 
	C495.100189,834.101685 496.084381,832.964844 496.056458,829.969971 
	C495.907440,813.980591 495.905579,797.989807 495.959595,781.168030 
	C495.959595,779.002991 495.959595,776.837952 495.959595,774.672913 
	C496.379639,774.607910 496.799713,774.542908 497.219757,774.477905 
	C501.398102,779.029480 505.576416,783.581055 510.045532,788.746338 
	C522.362183,802.973816 534.614563,817.258362 547.090515,831.344727 
	C548.403625,832.827271 551.020996,833.846558 553.055664,833.884705 
	C565.377625,834.115906 577.706116,834.010681 590.032349,833.978638 
	C591.081055,833.975891 592.128967,833.685120 593.674744,833.453552 
	C592.396179,831.800964 591.558472,830.581238 590.585388,829.481201 
	C579.329590,816.756653 568.074585,804.031372 556.760315,791.358948 
	C555.014282,789.403259 552.971497,787.712463 550.752502,785.301331 
M647.632141,792.059998 
	C647.681519,788.400757 647.959595,784.726318 647.718567,781.086304 
	C647.456299,777.126221 648.971558,775.925110 652.879395,775.990540 
	C665.356201,776.199524 677.840515,775.947327 690.317932,776.136719 
	C694.037659,776.193176 695.307251,774.996704 695.163147,771.282349 
	C694.918213,764.968567 694.860840,758.626099 695.183350,752.319153 
	C695.404480,747.995728 693.657837,746.993408 689.678223,747.072144 
	C678.699829,747.289551 667.714355,747.146729 656.731689,747.146057 
	C648.288269,747.145508 648.288269,747.145264 647.639160,738.084290 
	C647.684753,733.428650 647.962036,728.760315 647.706543,724.121277 
	C647.480835,720.022949 648.901672,718.596436 653.072998,718.663513 
	C666.209106,718.874817 679.351440,718.666321 692.489990,718.784546 
	C695.806274,718.814453 697.340576,717.898865 697.224060,714.284302 
	C697.009827,707.638306 697.073181,700.978577 697.208618,694.328369 
	C697.270508,691.287537 696.478577,689.783936 693.049072,689.797729 
	C668.267334,689.897827 643.484863,689.874451 618.702820,689.823730 
	C615.979126,689.818115 614.819519,690.788269 614.843628,693.599487 
	C614.973267,708.731262 614.997620,723.863953 614.932007,739.927063 
	C614.973999,757.616699 615.016052,775.306396 614.934143,793.927307 
	C614.912598,805.756531 614.979797,817.586914 614.813477,829.414124 
	C614.765808,832.803650 615.773376,834.082703 619.340149,834.064270 
	C643.831726,833.937927 668.324524,833.955139 692.816406,834.048523 
	C696.009705,834.060669 697.294189,833.073669 697.208618,829.774597 
	C697.035828,823.114563 696.981567,816.440063 697.233032,809.784912 
	C697.377502,805.960083 695.881836,804.945496 692.270447,805.003723 
	C681.110168,805.183533 669.945190,805.067810 658.782043,805.067444 
	C648.302368,805.067017 648.304565,805.067200 647.689636,794.452087 
	C647.660950,793.956726 647.532776,793.467163 647.632141,792.059998 
z"/>
<path fill="#F85694" opacity="1.000000" stroke="none" 
	d="
M619.586670,306.739075 
	C619.093567,300.284027 619.117920,293.736847 617.988098,287.395233 
	C616.225281,277.500610 610.250000,270.766968 600.773254,267.051025 
	C590.168701,262.892822 585.311584,250.848785 590.672974,240.891113 
	C591.933167,238.550613 595.892822,236.421188 598.677429,236.334122 
	C630.104248,235.351349 661.543152,234.733246 692.981445,234.160934 
	C698.187500,234.066177 703.910095,234.422012 706.378662,239.940125 
	C709.230164,246.314056 710.023071,253.368240 706.218323,259.602600 
	C704.695618,262.097870 701.200378,264.014893 698.219971,264.888763 
	C684.011169,269.054779 679.135681,275.006378 679.080627,289.966614 
	C679.010803,308.932312 679.165955,327.898895 678.909973,347.267334 
	C667.290710,342.772003 655.985535,337.874390 644.647583,332.602875 
	C642.300171,317.813416 633.422974,309.841614 619.586670,306.739075 
z"/>
<path fill="#FC6F7A" opacity="1.000000" stroke="none" 
	d="
M675.069702,547.090271 
	C675.445801,562.643494 674.155823,578.020142 670.046509,593.077942 
	C661.550903,624.208801 640.107483,642.113770 607.939758,643.783264 
	C595.378418,644.435242 582.672302,643.700195 570.114319,642.631653 
	C556.713013,641.491333 552.484558,635.689026 553.597168,622.337830 
	C553.790527,620.017639 553.882629,617.687256 553.961121,615.359558 
	C554.230652,607.369995 557.300415,604.914185 565.403442,605.579590 
	C573.853638,606.273560 582.332764,606.658203 590.806458,606.997253 
	C593.273010,607.095886 595.769348,606.617615 598.243469,606.330017 
	C607.984375,605.197449 613.890137,599.643250 616.503723,590.361206 
	C617.089478,588.280945 617.562744,586.168945 618.560852,583.635376 
	C635.211670,582.390259 646.822937,572.453186 648.295654,558.269287 
	C657.426941,554.441345 666.248352,550.765808 675.069702,547.090271 
z"/>
<path fill="#FC6782" opacity="1.000000" stroke="none" 
	d="
M825.857117,788.998718 
	C827.119263,815.034668 811.009644,832.622925 783.170105,835.931335 
	C761.460632,838.511230 741.547974,833.810364 723.261597,821.937439 
	C717.226624,818.018921 717.230530,818.026306 720.829773,811.996887 
	C725.082886,804.872131 729.323669,797.739990 733.569885,790.610962 
	C740.152527,794.360046 746.345337,798.130981 752.759583,801.477417 
	C760.471680,805.501038 768.653809,807.235413 777.378052,805.360596 
	C786.818604,803.331970 790.019043,799.450867 790.448486,789.429993 
	C802.570679,789.000366 814.213928,788.999573 825.857117,788.998718 
z"/>
<path fill="#41DE98" opacity="1.000000" stroke="none" 
	d="
M514.839111,536.463684 
	C497.251129,517.678406 486.501312,495.350250 482.133087,470.206146 
	C474.305023,425.146973 486.091858,385.455109 516.689331,351.532471 
	C517.725281,362.055878 518.470398,372.284698 519.120422,382.830719 
	C504.951599,405.500946 498.811951,429.809479 500.946503,456.183167 
	C502.418640,474.372101 508.401886,491.089783 517.035889,507.192322 
	C516.485107,508.442352 515.960266,509.371307 515.915894,510.322662 
	C515.509399,519.034119 515.186462,527.749451 514.839111,536.463684 
z"/>
<path fill="#FA5E8D" opacity="1.000000" stroke="none" 
	d="
M647.449890,739.006409 
	C648.288269,747.145264 648.288269,747.145508 656.731689,747.146057 
	C667.714355,747.146729 678.699829,747.289551 689.678223,747.072144 
	C693.657837,746.993408 695.404480,747.995728 695.183350,752.319153 
	C694.860840,758.626099 694.918213,764.968567 695.163147,771.282349 
	C695.307251,774.996704 694.037659,776.193176 690.317932,776.136719 
	C677.840515,775.947327 665.356201,776.199524 652.879395,775.990540 
	C648.971558,775.925110 647.456299,777.126221 647.718567,781.086304 
	C647.959595,784.726318 647.681519,788.400757 647.115234,792.523621 
	C636.084961,792.990173 625.571472,792.993103 615.058044,792.996033 
	C615.016052,775.306396 614.973999,757.616699 615.459412,739.462524 
	C626.474487,739.000732 636.962219,739.003601 647.449890,739.006409 
z"/>
<path fill="#FA5E8D" opacity="1.000000" stroke="none" 
	d="
M538.988708,743.977417 
	C536.293701,747.308533 533.818359,750.853699 530.840881,753.909485 
	C527.960022,756.866211 527.884766,758.946777 530.784851,762.111328 
	C537.673584,769.627930 544.124634,777.545654 550.555786,785.826965 
	C539.425354,786.568604 528.489929,786.723511 517.559326,787.045227 
	C514.949402,787.122070 512.355835,787.755249 509.754761,788.132568 
	C505.576416,783.581055 501.398102,779.029480 497.219757,774.477905 
	C496.799713,774.542908 496.379639,774.607910 495.959595,774.672913 
	C495.959595,776.837952 495.959595,779.002991 495.447998,781.583984 
	C484.393402,781.997803 473.850433,781.995667 463.307465,781.993530 
	C463.264313,769.304565 463.221161,756.615662 463.691833,743.462402 
	C474.754150,742.997375 485.302612,742.996643 495.851074,742.995850 
	C495.974091,744.268921 496.097107,745.542053 496.312012,747.766174 
	C498.337585,745.628418 499.892273,743.987671 502.194916,742.173340 
	C512.656677,742.000488 522.373291,741.877747 532.082336,742.091919 
	C534.397217,742.143005 536.687256,743.318848 538.988708,743.977417 
z"/>
<path fill="#F85398" opacity="1.000000" stroke="none" 
	d="
M647.544556,738.545349 
	C636.962219,739.003601 626.474487,739.000732 615.522583,738.997131 
	C614.997620,723.863953 614.973267,708.731262 614.843628,693.599487 
	C614.819519,690.788269 615.979126,689.818115 618.702820,689.823730 
	C643.484863,689.874451 668.267334,689.897827 693.049072,689.797729 
	C696.478577,689.783936 697.270508,691.287537 697.208618,694.328369 
	C697.073181,700.978577 697.009827,707.638306 697.224060,714.284302 
	C697.340576,717.898865 695.806274,718.814453 692.489990,718.784546 
	C679.351440,718.666321 666.209106,718.874817 653.072998,718.663513 
	C648.901672,718.596436 647.480835,720.022949 647.706543,724.121277 
	C647.962036,728.760315 647.684753,733.428650 647.544556,738.545349 
z"/>
<path fill="#F85398" opacity="1.000000" stroke="none" 
	d="
M731.000000,737.000000 
	C728.211670,721.475098 733.471558,708.862976 745.235168,698.858948 
	C760.150757,686.174255 777.411377,684.970581 795.606812,689.287231 
	C807.557251,692.122314 815.545471,695.783630 821.760132,701.197449 
	C817.585205,709.425049 813.337219,717.796692 809.015198,726.314087 
	C803.199280,723.892822 797.958496,721.475220 792.550598,719.519714 
	C785.890808,717.111267 779.028381,715.987366 771.999084,718.055664 
	C763.662781,720.508484 760.647949,727.040710 763.782471,735.526123 
	C758.347717,735.953247 753.240356,735.857361 748.142334,736.031616 
	C742.423889,736.227051 736.713745,736.666626 731.000000,737.000000 
z"/>
<path fill="#060B0A" opacity="1.000000" stroke="none" 
	d="
M517.284729,506.881653 
	C508.401886,491.089783 502.418640,474.372101 500.946503,456.183167 
	C498.811951,429.809479 504.951599,405.500946 519.395691,382.611389 
	C530.188110,366.260315 543.887878,353.957794 560.487305,344.279266 
	C572.892578,339.905609 584.952271,335.644623 597.455688,331.385376 
	C613.599915,328.773193 629.175293,329.840179 644.680359,332.976807 
	C655.985535,337.874390 667.290710,342.772003 678.983398,347.743591 
	C693.535583,357.718475 705.941162,369.330292 715.156982,384.131561 
	C750.070679,440.204926 732.838562,510.913544 675.297974,546.837036 
	C666.248352,550.765808 657.426941,554.441345 647.867920,558.282898 
	C633.651001,562.252380 619.882935,562.857788 605.583679,562.072388 
	C594.828308,559.517822 584.486816,557.055359 573.872925,554.381836 
	C563.459534,548.260132 553.318481,542.349365 542.977539,536.194214 
	C534.279968,526.260376 525.782349,516.570984 517.284729,506.881653 
M608.769470,558.602112 
	C622.360779,559.522583 635.716003,558.409851 649.473938,553.990234 
	C658.093079,550.071777 666.712219,546.153320 675.981506,542.056458 
	C715.388245,517.521179 736.027832,472.056824 727.710022,426.585541 
	C721.991089,395.321747 706.000427,370.399475 678.853760,352.171051 
	C668.353638,345.270935 657.151550,339.966370 644.094543,336.937866 
	C626.733948,332.494507 609.328308,332.314148 591.068665,336.477325 
	C575.631897,340.267609 561.326355,346.447754 548.209473,356.783325 
	C511.201904,387.243500 497.141479,426.054504 507.405243,472.847687 
	C512.760620,497.263336 525.766296,517.580505 546.007263,533.757507 
	C555.338135,539.190125 564.668945,544.622681 574.498840,550.578613 
	C585.668640,553.142151 596.838379,555.705688 608.769470,558.602112 
z"/>
<path fill="#FC6782" opacity="1.000000" stroke="none" 
	d="
M614.996094,793.461670 
	C625.571472,792.993103 636.084961,792.990173 647.024658,792.981079 
	C647.532776,793.467163 647.660950,793.956726 647.689636,794.452087 
	C648.304565,805.067200 648.302368,805.067017 658.782043,805.067444 
	C669.945190,805.067810 681.110168,805.183533 692.270447,805.003723 
	C695.881836,804.945496 697.377502,805.960083 697.233032,809.784912 
	C696.981567,816.440063 697.035828,823.114563 697.208618,829.774597 
	C697.294189,833.073669 696.009705,834.060669 692.816406,834.048523 
	C668.324524,833.955139 643.831726,833.937927 619.340149,834.064270 
	C615.773376,834.082703 614.765808,832.803650 614.813477,829.414124 
	C614.979797,817.586914 614.912598,805.756531 614.996094,793.461670 
z"/>
<path fill="#FA5E8D" opacity="1.000000" stroke="none" 
	d="
M730.987915,737.395874 
	C736.713745,736.666626 742.423889,736.227051 748.142334,736.031616 
	C753.240356,735.857361 758.347717,735.953247 763.958740,735.903870 
	C774.003723,740.919312 783.423767,746.200012 793.107788,750.941711 
	C805.276306,756.900085 816.478455,763.926270 822.741333,776.490295 
	C824.522583,780.063660 824.885315,784.344055 825.877808,788.649475 
	C814.213928,788.999573 802.570679,789.000366 790.458008,789.001892 
	C787.091492,782.860474 781.459351,779.907593 775.824829,777.052307 
	C768.869446,773.527588 761.659790,770.480408 754.837036,766.723877 
	C743.128967,760.277466 733.762573,751.693298 730.987915,737.395874 
z"/>
<path fill="#FC6782" opacity="1.000000" stroke="none" 
	d="
M383.321594,799.014038 
	C382.321320,818.295166 371.529602,831.062195 352.773315,835.166504 
	C336.763306,838.669800 322.049530,836.095703 308.827911,826.036072 
	C306.069519,823.937439 305.154419,821.999939 306.665375,818.507568 
	C309.819031,811.218201 312.449921,803.702759 315.479034,795.801636 
	C325.709991,803.279846 335.596191,810.675842 347.920715,799.107788 
	C360.224823,798.960266 371.773193,798.987122 383.321594,799.014038 
z"/>
<path fill="#FC6782" opacity="1.000000" stroke="none" 
	d="
M509.900146,788.439453 
	C512.355835,787.755249 514.949402,787.122070 517.559326,787.045227 
	C528.489929,786.723511 539.425354,786.568604 550.712524,786.125854 
	C552.971497,787.712463 555.014282,789.403259 556.760315,791.358948 
	C568.074585,804.031372 579.329590,816.756653 590.585388,829.481201 
	C591.558472,830.581238 592.396179,831.800964 593.674744,833.453552 
	C592.128967,833.685120 591.081055,833.975891 590.032349,833.978638 
	C577.706116,834.010681 565.377625,834.115906 553.055664,833.884705 
	C551.020996,833.846558 548.403625,832.827271 547.090515,831.344727 
	C534.614563,817.258362 522.362183,802.973816 509.900146,788.439453 
z"/>
<path fill="#F85496" opacity="1.000000" stroke="none" 
	d="
M539.271790,743.803955 
	C536.687256,743.318848 534.397217,742.143005 532.082336,742.091919 
	C522.373291,741.877747 512.656677,742.000488 502.474731,742.000244 
	C515.936218,725.266785 529.854980,708.523743 543.828064,691.826172 
	C544.520569,690.998657 545.681152,690.040344 546.632446,690.031128 
	C559.035950,689.911011 571.440918,689.951416 585.274475,689.951416 
	C569.452515,708.527893 554.503662,726.079163 539.271790,743.803955 
z"/>
<path fill="#F85496" opacity="1.000000" stroke="none" 
	d="
M351.156708,748.989563 
	C351.099915,730.703125 351.099304,712.416199 350.933746,694.130737 
	C350.904449,690.897583 351.987640,689.729492 355.237091,689.794739 
	C363.214386,689.955017 371.201996,690.008057 379.175629,689.772644 
	C382.958221,689.660950 384.011993,691.053833 383.976410,694.690063 
	C383.802307,712.478149 383.851288,730.268433 383.310211,748.523926 
	C372.251587,748.989807 361.704132,748.989685 351.156708,748.989563 
z"/>
<path fill="#FC6684" opacity="1.000000" stroke="none" 
	d="
M442.776794,777.006836 
	C442.835968,794.667542 442.847137,812.328613 443.000458,829.988464 
	C443.026733,833.016357 441.976105,834.095947 438.944977,834.043030 
	C430.782227,833.900452 422.611450,833.849182 414.451874,834.064331 
	C410.882019,834.158325 409.922150,832.825806 409.951813,829.426392 
	C410.101501,812.264160 410.048584,795.100220 410.578613,777.470459 
	C421.652588,777.005066 432.214661,777.005920 442.776794,777.006836 
z"/>
<path fill="#FA5E8D" opacity="1.000000" stroke="none" 
	d="
M442.835693,776.540649 
	C432.214661,777.005920 421.652588,777.005066 410.634399,777.005188 
	C410.139954,759.317749 410.101562,741.629211 410.575989,723.474426 
	C421.652466,723.009155 432.216156,723.010193 442.779846,723.011230 
	C442.818115,740.698975 442.856354,758.386719 442.835693,776.540649 
z"/>
<path fill="#F85496" opacity="1.000000" stroke="none" 
	d="
M495.906189,742.530273 
	C485.302612,742.996643 474.754150,742.997375 463.759491,742.998291 
	C463.243652,726.543640 463.225861,710.088379 463.060242,693.634583 
	C463.027405,690.372070 464.638550,689.785706 467.387085,689.815979 
	C475.365967,689.903931 483.351501,690.011475 491.324127,689.770752 
	C495.119904,689.656067 496.134888,691.057678 496.093506,694.685974 
	C495.913422,710.477356 495.982635,726.271545 495.906189,742.530273 
z"/>
<path fill="#FC6684" opacity="1.000000" stroke="none" 
	d="
M463.239960,782.458496 
	C473.850433,781.995667 484.393402,781.997803 495.394592,781.999756 
	C495.905579,797.989807 495.907440,813.980591 496.056458,829.969971 
	C496.084381,832.964844 495.100189,834.101685 492.033905,834.045288 
	C483.873688,833.895081 475.705017,833.850647 467.547577,834.064148 
	C463.962799,834.157898 463.010895,832.777405 463.044250,829.400330 
	C463.197296,813.909119 463.148682,798.415894 463.239960,782.458496 
z"/>
<path fill="#FA5E8D" opacity="1.000000" stroke="none" 
	d="
M351.099701,749.456238 
	C361.704132,748.989685 372.251587,748.989807 383.245636,748.987366 
	C383.666718,765.360046 383.641144,781.735229 383.468597,798.562256 
	C371.773193,798.987122 360.224823,798.960266 348.184509,798.909363 
	C348.790497,793.561279 350.590607,788.269897 350.839355,782.906433 
	C351.348328,771.932434 351.023895,760.919678 351.099701,749.456238 
z"/>
<path fill="#41DE98" opacity="1.000000" stroke="none" 
	d="
M909.982544,711.991272 
	C912.742065,698.343140 921.248047,689.470032 934.024109,685.177307 
	C947.743835,680.567505 960.325623,683.618896 970.841492,693.728455 
	C976.087952,698.772217 979.755371,704.859009 980.499878,712.597168 
	C974.523315,713.381714 969.015259,713.770874 963.360107,713.859863 
	C959.286865,703.457947 953.980347,699.133484 945.140991,699.352539 
	C936.573853,699.564880 930.974487,704.151001 927.400452,711.984924 
	C921.288391,711.988892 915.635437,711.990051 909.982544,711.991272 
z"/>
<path fill="#40D59E" opacity="1.000000" stroke="none" 
	d="
M560.141846,344.391937 
	C543.887878,353.957794 530.188110,366.260315 519.490784,382.294189 
	C518.470398,372.284698 517.725281,362.055878 516.972595,351.349304 
	C528.474060,338.336273 541.835510,328.303223 557.765442,321.365479 
	C558.899536,329.253357 559.520691,336.822662 560.141846,344.391937 
z"/>
<path fill="#F85398" opacity="1.000000" stroke="none" 
	d="
M442.837585,722.544373 
	C432.216156,723.010193 421.652466,723.009155 410.632446,723.009521 
	C410.122955,713.207214 410.129578,703.402588 409.978851,693.600342 
	C409.935608,690.786255 411.051544,689.789490 413.794708,689.819946 
	C422.103912,689.912048 430.416809,689.955994 438.724030,689.796692 
	C441.991028,689.734070 443.072449,690.942871 443.013458,694.157104 
	C442.842651,703.461487 442.917114,712.770386 442.837585,722.544373 
z"/>
<path fill="#41DE98" opacity="1.000000" stroke="none" 
	d="
M840.002014,710.997620 
	C844.143616,693.960388 863.852966,680.980469 882.345398,683.551880 
	C887.703430,684.296997 892.923218,686.215881 898.119934,687.868530 
	C900.820068,688.727234 901.523743,690.685181 900.039490,693.375671 
	C898.206055,696.699158 896.590942,700.143066 895.517151,702.273865 
	C887.927246,701.521118 881.249146,700.047668 874.677795,700.426331 
	C867.554016,700.836792 862.002502,705.082092 857.879700,711.549805 
	C851.530945,711.385986 845.766479,711.191772 840.002014,710.997620 
z"/>
<path fill="#3DB9B1" opacity="1.000000" stroke="none" 
	d="
M644.647583,332.602875 
	C629.175293,329.840179 613.599915,328.773193 597.454224,330.889709 
	C596.979675,323.177124 596.950378,315.961853 596.921082,308.746582 
	C604.130371,308.116943 611.339600,307.487305 619.067749,306.798370 
	C633.422974,309.841614 642.300171,317.813416 644.647583,332.602875 
z"/>
<path fill="#3DC3AB" opacity="1.000000" stroke="none" 
	d="
M977.313049,739.434631 
	C970.907349,752.220764 960.296814,758.563843 946.253784,758.861267 
	C931.189453,759.180420 919.760254,752.800476 913.136719,738.463379 
	C915.839050,737.566223 918.255066,737.314270 920.661804,736.992249 
	C923.839050,736.567200 927.008850,736.087158 930.449768,735.849915 
	C939.531799,744.630310 948.200317,745.191284 959.084839,737.897217 
	C961.369995,737.946899 963.174194,737.849426 964.952026,738.022339 
	C969.079102,738.423767 973.193481,738.955688 977.313049,739.434631 
z"/>
<path fill="#3DC3AB" opacity="1.000000" stroke="none" 
	d="
M596.491699,308.765961 
	C596.950378,315.961853 596.979675,323.177124 597.010498,330.888031 
	C584.952271,335.644623 572.892578,339.905609 560.487305,344.279266 
	C559.520691,336.822662 558.899536,329.253357 558.117798,321.290039 
	C569.851440,314.318420 582.670776,310.651642 596.491699,308.765961 
z"/>
<path fill="#3DC3AB" opacity="1.000000" stroke="none" 
	d="
M861.973511,736.173401 
	C872.187073,743.977051 883.053833,743.980042 894.680603,738.406860 
	C896.632996,742.343018 898.466309,746.038879 900.299438,749.734802 
	C901.943970,753.050415 899.146484,753.765747 897.202942,754.779541 
	C878.499268,764.535217 854.643066,757.780945 843.683228,739.189209 
	C848.230652,738.521667 852.504089,738.402527 856.737732,737.928650 
	C858.526123,737.728455 860.230774,736.781128 861.973511,736.173401 
z"/>
<path fill="#40D59E" opacity="1.000000" stroke="none" 
	d="
M517.035889,507.192322 
	C525.782349,516.570984 534.279968,526.260376 542.943726,536.699219 
	C542.733093,544.994446 542.356323,552.540161 541.979614,560.085815 
	C533.015930,552.401062 524.052246,544.716309 514.963867,536.747620 
	C515.186462,527.749451 515.509399,519.034119 515.915894,510.322662 
	C515.960266,509.371307 516.485107,508.442352 517.035889,507.192322 
z"/>
<path fill="#3DB9B1" opacity="1.000000" stroke="none" 
	d="
M605.997559,562.164429 
	C619.882935,562.857788 633.651001,562.252380 647.557922,558.435303 
	C646.822937,572.453186 635.211670,582.390259 618.606445,583.261353 
	C614.422119,583.142822 610.665405,582.962097 606.453003,582.255249 
	C605.997375,575.207581 605.997498,568.685974 605.997559,562.164429 
z"/>
<path fill="#3FCDA5" opacity="1.000000" stroke="none" 
	d="
M542.185974,560.345581 
	C542.356323,552.540161 542.733093,544.994446 543.143677,536.943726 
	C553.318481,542.349365 563.459534,548.260132 573.844604,554.876587 
	C574.058960,562.332336 574.029297,569.082397 573.999634,575.832458 
	C563.463867,570.756775 552.928101,565.681030 542.185974,560.345581 
z"/>
<path fill="#3DC3AB" opacity="1.000000" stroke="none" 
	d="
M574.334351,576.001465 
	C574.029297,569.082397 574.058960,562.332336 574.116943,555.087585 
	C584.486816,557.055359 594.828308,559.517822 605.583679,562.072388 
	C605.997498,568.685974 605.997375,575.207581 605.997253,582.164612 
	C595.554443,580.456848 585.111755,578.313660 574.334351,576.001465 
z"/>
<path fill="#3FCDA5" opacity="1.000000" stroke="none" 
	d="
M861.727905,735.921021 
	C860.230774,736.781128 858.526123,737.728455 856.737732,737.928650 
	C852.504089,738.402527 848.230652,738.521667 843.579712,738.869507 
	C837.728882,730.410461 836.676819,721.285828 839.795227,711.318359 
	C845.766479,711.191772 851.530945,711.385986 857.650696,711.791077 
	C854.723694,720.543213 856.171875,728.389587 861.727905,735.921021 
z"/>
<path fill="#3FCDA5" opacity="1.000000" stroke="none" 
	d="
M930.181885,735.630676 
	C927.008850,736.087158 923.839050,736.567200 920.661804,736.992249 
	C918.255066,737.314270 915.839050,737.566223 913.067749,738.122070 
	C908.104553,730.250488 907.807434,721.584106 909.785645,712.328491 
	C915.635437,711.990051 921.288391,711.988892 927.361694,712.400208 
	C925.974670,720.692932 926.325989,728.346130 930.181885,735.630676 
z"/>
<path fill="#3FCDA5" opacity="1.000000" stroke="none" 
	d="
M977.546814,739.163086 
	C973.193481,738.955688 969.079102,738.423767 964.952026,738.022339 
	C963.174194,737.849426 961.369995,737.946899 959.228760,737.565308 
	C964.130493,730.270569 964.795654,722.411377 963.507202,714.160034 
	C969.015259,713.770874 974.523315,713.381714 980.494507,712.990723 
	C983.196899,722.027588 982.185364,730.667664 977.546814,739.163086 
z"/>
<path fill="#FA6387" opacity="1.000000" stroke="none" 
	d="
M644.831299,337.203644 
	C657.151550,339.966370 668.353638,345.270935 679.023193,352.919678 
	C678.766418,373.955933 678.386902,394.244659 677.898926,414.530762 
	C677.507019,430.825592 676.858398,447.114899 676.547058,463.410889 
	C676.045105,489.683685 675.727051,515.960022 675.331360,542.234863 
	C666.712219,546.153320 658.093079,550.071777 649.049011,553.587158 
	C646.382568,537.004700 638.106506,528.383057 622.232178,525.231201 
	C621.926086,471.242340 621.599487,417.691315 621.609497,364.015686 
	C635.440247,360.025299 643.229126,351.267120 644.831299,337.203644 
M643.283997,430.722504 
	C644.031433,432.294647 644.778870,433.866821 646.253723,436.969147 
	C647.799988,433.951813 648.718689,432.159149 649.637329,430.366486 
	C647.502686,430.267365 645.367981,430.168243 643.283997,430.722504 
M647.087463,404.094696 
	C645.964233,406.099640 644.840942,408.104584 643.717712,410.109497 
	C644.003662,410.550598 644.289673,410.991669 644.575623,411.432770 
	C646.356384,411.245422 648.137146,411.058075 651.230469,410.732666 
	C648.935181,408.823273 648.010803,408.054260 646.986694,407.202301 
	C648.104614,405.937561 648.984619,404.942017 650.367432,403.377625 
	C648.918396,403.663727 648.298401,403.786133 647.087463,404.094696 
M652.768738,431.162048 
	C652.768738,431.162048 652.802673,431.205200 652.768738,431.162048 
z"/>
<path fill="#737373" opacity="1.000000" stroke="none" 
	d="
M675.656433,542.145630 
	C675.727051,515.960022 676.045105,489.683685 676.547058,463.410889 
	C676.858398,447.114899 677.507019,430.825592 677.898926,414.530762 
	C678.386902,394.244659 678.766418,373.955933 679.243164,353.180908 
	C706.000427,370.399475 721.991089,395.321747 727.710022,426.585541 
	C736.027832,472.056824 715.388245,517.521179 675.656433,542.145630 
z"/>
<path fill="#40D59E" opacity="1.000000" stroke="none" 
	d="
M545.640076,533.170349 
	C525.766296,517.580505 512.760620,497.263336 507.405243,472.847687 
	C497.141479,426.054504 511.201904,387.243500 548.553467,357.108459 
	C549.264221,366.811920 549.567871,376.193298 550.024475,385.567230 
	C550.247803,390.153015 550.755676,394.724884 551.029297,399.618805 
	C540.175964,416.989471 534.707214,435.482544 538.225891,455.546356 
	C539.925293,465.236420 544.006470,474.508789 546.851440,484.357788 
	C546.462463,486.880249 545.994568,489.020172 546.039368,491.149292 
	C546.290894,503.104858 546.737610,515.056702 546.930481,527.012817 
	C546.963440,529.057861 546.093079,531.117493 545.640076,533.170349 
z"/>
<path fill="#3FCDA5" opacity="1.000000" stroke="none" 
	d="
M551.134766,399.303070 
	C550.755676,394.724884 550.247803,390.153015 550.024475,385.567230 
	C549.567871,376.193298 549.264221,366.811920 548.867920,356.950562 
	C561.326355,346.447754 575.631897,340.267609 591.494263,336.941040 
	C591.947144,347.635956 591.974426,357.867096 591.695923,368.260620 
	C574.992798,374.832947 561.730103,385.329468 551.134766,399.303070 
z"/>
<path fill="#3DB9B1" opacity="1.000000" stroke="none" 
	d="
M592.001648,368.098267 
	C591.974426,357.867096 591.947144,347.635956 591.898804,336.895599 
	C609.328308,332.314148 626.733948,332.494507 644.462891,337.070740 
	C643.229126,351.267120 635.440247,360.025299 621.163940,363.992737 
	C610.921814,365.429047 601.461731,366.763672 592.001648,368.098267 
z"/>
<path fill="#3FCDA5" opacity="1.000000" stroke="none" 
	d="
M545.823669,533.463928 
	C546.093079,531.117493 546.963440,529.057861 546.930481,527.012817 
	C546.737610,515.056702 546.290894,503.104858 546.039368,491.149292 
	C545.994568,489.020172 546.462463,486.880249 547.090088,484.597717 
	C554.487122,496.265625 563.620850,506.059357 574.965332,514.013062 
	C574.590942,517.041565 574.219238,519.663879 574.184082,522.290710 
	C574.060242,531.544739 574.051941,540.800293 573.999817,550.055298 
	C564.668945,544.622681 555.338135,539.190125 545.823669,533.463928 
z"/>
<path fill="#3DC3AB" opacity="1.000000" stroke="none" 
	d="
M574.249329,550.316956 
	C574.051941,540.800293 574.060242,531.544739 574.184082,522.290710 
	C574.219238,519.663879 574.590942,517.041565 575.300415,514.156372 
	C585.832703,519.635986 596.494263,523.605469 607.992920,525.650574 
	C607.999084,536.827759 608.003662,547.548462 608.008179,558.269165 
	C596.838379,555.705688 585.668640,553.142151 574.249329,550.316956 
z"/>
<path fill="#3DB9B1" opacity="1.000000" stroke="none" 
	d="
M608.388794,558.435669 
	C608.003662,547.548462 607.999084,536.827759 608.449768,525.621460 
	C613.340515,525.313538 617.776123,525.491272 622.211670,525.669006 
	C638.106506,528.383057 646.382568,537.004700 648.654419,553.575928 
	C635.716003,558.409851 622.360779,559.522583 608.388794,558.435669 
z"/>
<path fill="#737373" opacity="1.000000" stroke="none" 
	d="
M963.360107,713.859802 
	C964.795654,722.411377 964.130493,730.270569 958.735840,737.541016 
	C948.200317,745.191284 939.531799,744.630310 930.449768,735.849915 
	C926.325989,728.346130 925.974670,720.692932 927.820801,712.397461 
	C930.974487,704.151001 936.573853,699.564880 945.140991,699.352539 
	C953.980347,699.133484 959.286865,703.457947 963.360107,713.859802 
z"/>
<path fill="#737373" opacity="1.000000" stroke="none" 
	d="
M622.232178,525.231201 
	C617.776123,525.491272 613.340515,525.313538 608.448120,525.164917 
	C596.494263,523.605469 585.832703,519.635986 575.457458,513.752319 
	C563.620850,506.059357 554.487122,496.265625 547.247925,484.210205 
	C544.006470,474.508789 539.925293,465.236420 538.225891,455.546356 
	C534.707214,435.482544 540.175964,416.989471 551.029297,399.618805 
	C561.730103,385.329468 574.992798,374.832947 591.695923,368.260620 
	C601.461731,366.763672 610.921814,365.429047 620.827393,364.117371 
	C621.599487,417.691315 621.926086,471.242340 622.232178,525.231201 
z"/>
<path fill="#737373" opacity="1.000000" stroke="none" 
	d="
M643.258667,430.395813 
	C645.367981,430.168243 647.502686,430.267365 649.637329,430.366486 
	C648.718689,432.159149 647.799988,433.951813 646.253723,436.969147 
	C644.778870,433.866821 644.031433,432.294647 643.258667,430.395813 
z"/>
<path fill="#737373" opacity="1.000000" stroke="none" 
	d="
M647.382935,404.001617 
	C648.298401,403.786133 648.918396,403.663727 650.367432,403.377625 
	C648.984619,404.942017 648.104614,405.937561 646.986694,407.202301 
	C648.010803,408.054260 648.935181,408.823273 651.230469,410.732666 
	C648.137146,411.058075 646.356384,411.245422 644.575623,411.432770 
	C644.289673,410.991669 644.003662,410.550598 643.717712,410.109497 
	C644.840942,408.104584 645.964233,406.099640 647.382935,404.001617 
z"/>
<path fill="#737373" opacity="1.000000" stroke="none" 
	d="
M652.785706,431.183624 
	C652.802673,431.205200 652.768738,431.162048 652.785706,431.183624 
z"/>
</svg>